PathFileType	4	(X/Y/Z)	C:\Users\Owen\Repositories\CapacitiveSensingKinematics\CSOptimalControl\OutputData\FilteredlIMUGyros.trc
DataRate	CameraRate	NumFrames	NumMarkers	Units	OrigDataRate	OrigDataStartFrame	OrigNumFrames
100	100	14	8	m	100	3528	7057
Frame#	Time	/bodyset/torso/torso_imu_offset			/bodyset/pelvis/pelvis_imu_offset			/bodyset/tibia_r/tibia_r_imu_offset			/bodyset/femur_r/femur_r_imu_offset			/bodyset/tibia_l/tibia_l_imu_offset			/bodyset/femur_l/femur_l_imu_offset			/bodyset/toes_r/toes_r_imu_offset			/bodyset/toes_l/toes_l_imu_offset			
		X1	Y1	Z1	X2	Y2	Z2	X3	Y3	Z3	X4	Y4	Z4	X5	Y5	Z5	X6	Y6	Z6	X7	Y7	Z7	X8	Y8	Z8	

3529	35.28	-0.6130585160477163	-0.223363183408928	-0.008597616587287752	-0.2740488039375245	-0.03408264392006705	0.3948275650257414	-2.178944185476618	-1.568263512354278	1.358285334445384	-0.4446101727790079	0.5559421012938187	1.310239891225488	0.9890540136518823	0.2741109767649612	0.8641478775590279	1.104109991718984	-0.4170810939813271	0.3809810367007557	-0.7693554857149216	3.26268714129347	1.094709889444215	0.008126869189464408	-0.1622218448824346	0.1650904198850925	
3530	35.29	-0.5878137412944977	-0.1971017288511279	0.007500699642688584	-0.3010501030874349	-0.009872259647455049	0.416463399889196	-2.095413469423039	-1.506153966597346	1.725972531857276	-0.3298486813790776	0.513687354304992	1.282535568955934	0.8758536365163598	0.3086022012616779	0.8703260052603023	1.137332876909963	-0.3698456181173674	0.356969128880619	-0.8952634588068963	3.278846685194368	1.634512028064645	0.009546026384580002	-0.1613597184774523	0.1676360921468641	
3531	35.3	-0.5768254660226628	-0.1718427476383654	0.01892596316687601	-0.3160404823819584	0.01903633118476843	0.4340598099321046	-1.720791687788763	-1.373572247106744	2.022665605008127	-0.1551670003980497	0.4695497552923921	1.251109990401559	0.7994668980801767	0.3331841172571486	0.8827153482196156	1.109865829895341	-0.3230511499203411	0.3319624586682649	-0.9957847544105378	3.421572437875258	1.997926729865857	0.007301307649890775	-0.154353782491589	0.1704440603894052	
3532	35.31	-0.5772062435165037	-0.1511775359468915	0.02504183991892543	-0.3155215636516258	0.05237198867918894	0.4445882237950807	-1.080257887396916	-1.197718161752669	2.252910306106302	0.05691561031705457	0.4256723714723087	1.213092533726656	0.760928500041841	0.3498867534485954	0.8989626947023912	1.029603549184555	-0.2837005824098826	0.309730860526879	-1.044338544254399	3.680022020099005	2.180430157274741	0.002128658627198026	-0.1419834712717202	0.1736886708058554	
3533	35.32	-0.5852595975346082	-0.1363813879725374	0.02634212179197127	-0.2995032099798137	0.08805452925708099	0.4460177382640872	-0.269041064905626	-1.011883492069969	2.442882617617131	0.2753512649667179	0.3842494768970468	1.166714373839253	0.7462114752796024	0.3616049121952195	0.9158936758609864	0.9083373056377783	-0.2538777210122345	0.2942892376096479	-1.079235788447534	3.99573683750808	2.202232740242567	-0.004714717973456965	-0.1257804877853107	0.1771150913471533	
3534	35.33	-0.5969073709543476	-0.1265271659163063	0.02391947784102824	-0.2707845096374505	0.1224909335068393	0.4375255719496949	0.5672578372017369	-0.8482589252766803	2.627016017734779	0.468458075385997	0.3476510474884995	1.111201125727654	0.7363350104208667	0.3711607452075588	0.9300954432575914	0.7610869078838853	-0.2318773866282131	0.2889648909379919	-1.153319551045353	4.295871061585975	2.097020499090906	-0.01212883178411219	-0.1073944342226524	0.1802317913080558	
3535	35.34	-0.6080338496126818	-0.1193985612096524	0.01855327061621937	-0.2334778935776998	0.1520319279272647	0.4192346467066428	1.282179988742315	-0.7294812459538661	2.832816270123487	0.6109290627724664	0.3170927830178729	1.047335805140756	0.7153771619961674	0.3805538088380192	0.9388455950772306	0.6048860935135605	-0.2144499969111549	0.2955002420470433	-1.284163395422619	4.526212277985739	1.903638096178839	-0.01904818987776345	-0.08824967271969579	0.1825056650231338	
3536	35.35	-0.6149514815017055	-0.1128673933343828	0.01044541266553611	-0.1918722834017854	0.1743122856088652	0.3922097387738856	1.781984356786619	-0.6612046968442278	3.071182884315088	0.689092198828436	0.2909619406427243	0.977532126914134	0.6743188500391886	0.3905182038854814	0.9412310236260525	0.4571719237335666	-0.1988723961117247	0.3135801919698226	-1.439306742129548	4.667743582898264	1.66439644547575	-0.02439511495522287	-0.06959272588132533	0.1835225401089466	
3537	35.36	-0.6147802168457879	-0.1058508374246546	-0.0002172000375090324	-0.1500842681489916	0.1885871341849327	0.3585936229421685	2.048415888796789	-0.6317447127761046	3.336148692644458	0.7034789474952671	0.2647230823982604	0.9047219384278765	0.6116365999150662	0.4002977187966416	0.9381748139850621	0.3338135246618933	-0.1840583697567888	0.3410104522727451	-1.560710815612274	4.730948091004037	1.426104555727058	-0.02756654050685531	-0.05260362799190477	0.1831781754794175	
3538	35.37	-0.6057047985356711	-0.09835513387351924	-0.01277767133883067	-0.1119864347413137	0.1951670459335195	0.3212599459064762	2.12328390391895	-0.6204421993834057	3.611499004958326	0.6670211388842984	0.2330319642822447	0.8304812099107696	0.5327938854634118	0.408078326289317	0.930905649582106	0.2469281879302316	-0.1705337105938046	0.3744468065992339	-1.604174385939566	4.73754665099832	1.237576348806192	-0.02884774238608996	-0.03852469838460259	0.181796946266001	
3539	35.38	-0.5872330795906975	-0.09092723512442163	-0.02622155136659427	-0.08075547328595103	0.1946753277279447	0.283018888079195	2.072427602191321	-0.6087847373625063	3.877736871383506	0.5988002214664859	0.1925487162513656	0.7536793985298769	0.4485822706051233	0.4118539533328394	0.9196700498198522	0.2027987606035689	-0.1597255412969565	0.4102014668174759	-1.562938235318195	4.704174331739509	1.141293318400925	-0.02913671875943887	-0.02855363355902847	0.1799303727741507	
3540	35.39	-0.5602282999988136	-0.0840368947072616	-0.03953841596869642	-0.0578834901025849	0.1877415767429494	0.2459855646919901	1.947873671206096	-0.5879532056942549	4.115683349492017	0.5167421338944366	0.1435094882030642	0.6708574305890801	0.3712652292556233	0.4100909628606482	0.9046147195646322	0.2005774511042126	-0.1529421998519783	0.4447891819640755	-1.461905026870348	4.637166155034417	1.162423443048738	-0.02903148095166757	-0.02332993476001798	0.17796142761444	
3541	35.4	-0.5264930994896241	-0.07778749665735556	-0.0519809520361021	-0.04228280148226252	0.1751197411180772	0.2113502274691461	1.763583944058908	-0.5609322634691735	4.309013856134461	0.4334325267713601	0.08979900377485124	0.5777415945344798	0.3099611422765309	0.4025364157297654	0.8874742566281724	0.2326852218137951	-0.1504752419341995	0.4754234787593928	-1.333024534130704	4.539698423511892	1.301075643132386	-0.02831430298963133	-0.02262795884362895	0.1760057227542173	
3542	35.41	-0.4882503378770281	-0.07201924504476537	-0.06321467969953598	-0.03041580796026889	0.1577604195867377	0.1794600511047299	1.50136939615907	-0.5393550908894428	4.44933102919763	0.3556832615013076	0.0377874138609355	0.4702397479108636	0.2682963972929815	0.39102882169569	0.8711467886561807	0.2873304685118324	-0.1513411818568819	0.5008291715198417	-1.194636437798965	4.423485254068895	1.532475034564929	-0.02640248097043653	-0.02569092601342336	0.1742308354950859	
